<?xml version="1.0" encoding="UTF-8"?>
<svg xmlns="http://www.w3.org/2000/svg" width="710.0pt" height="76.641pt" viewBox="145.0 461.68 710.0 76.641">
  <path fill-rule="nonzero" fill="rgb(100%, 100%, 100%)" fill-opacity="1" d="M 362.277344 495.300781 L 362.277344 502.863281 L 346.226562 502.863281 L 346.226562 533.320312 L 337.132812 533.320312 L 337.132812 502.863281 L 321.246094 502.863281 L 321.246094 495.300781 Z M 362.277344 495.300781 " />
  <path fill-rule="nonzero" fill="rgb(100%, 100%, 100%)" fill-opacity="1" d="M 390.238281 516.554688 L 383.621094 503.617188 L 383.21875 503.617188 L 376.351562 516.554688 Z M 358.425781 533.320312 L 378.585938 495.300781 L 388.148438 495.300781 L 408.144531 533.320312 L 398.765625 533.320312 L 393.890625 523.734375 L 372.679688 523.734375 L 367.75 533.320312 Z M 358.425781 533.320312 " />
  <path fill-rule="nonzero" fill="rgb(100%, 100%, 100%)" fill-opacity="1" d="M 456.484375 495.300781 L 456.484375 533.320312 L 447.390625 533.320312 L 447.390625 502.863281 L 426.023438 502.863281 L 426.023438 519.515625 C 426.023438 529.265625 422.027344 533.320312 415.234375 533.320312 L 411.398438 533.320312 L 411.398438 525.761719 C 416.054688 525.761719 416.929688 524.007812 416.929688 518.476562 L 416.929688 495.300781 Z M 456.484375 495.300781 " />
  <path fill-rule="nonzero" fill="rgb(100%, 100%, 100%)" fill-opacity="1" d="M 504.296875 495.300781 L 504.296875 502.863281 L 488.246094 502.863281 L 488.246094 533.320312 L 479.152344 533.320312 L 479.152344 502.863281 L 463.269531 502.863281 L 463.269531 495.300781 Z M 504.296875 495.300781 " />
  <path fill-rule="nonzero" fill="rgb(100%, 100%, 100%)" fill-opacity="1" d="M 543.183594 510.695312 L 543.183594 509.050781 C 543.183594 503.078125 541.871094 502.421875 535.789062 502.421875 L 524.121094 502.421875 C 518.863281 502.421875 516.835938 504.066406 516.835938 507.902344 L 507.742188 507.902344 C 507.742188 497.21875 513.601562 494.863281 522.585938 494.863281 L 537.597656 494.863281 C 548.773438 494.863281 552.277344 497.714844 552.277344 508.722656 L 552.277344 519.84375 C 552.277344 530.03125 548.9375 533.320312 538.417969 533.320312 L 521.492188 533.320312 C 510.261719 533.320312 507.742188 530.25 507.742188 520.117188 L 516.835938 520.117188 C 516.835938 524.773438 518.753906 525.761719 524.175781 525.761719 L 535.84375 525.761719 C 541.046875 525.761719 543.183594 524.609375 543.183594 518.804688 L 543.183594 517.324219 L 520.558594 517.324219 L 520.558594 510.695312 Z M 543.183594 510.695312 " />
  <path fill-rule="nonzero" fill="rgb(100%, 100%, 100%)" fill-opacity="1" d="M 568.320312 509.488281 L 571.078125 509.488281 L 594.199219 495.300781 L 607.839844 495.300781 L 578.914062 513.105469 L 606.109375 533.320312 L 592.742188 533.320312 L 571.242188 517.050781 L 568.320312 517.050781 L 568.320312 533.320312 L 559.226562 533.320312 L 559.226562 495.300781 L 568.320312 495.300781 Z M 568.320312 509.488281 " />
  <path fill-rule="nonzero" fill="rgb(100%, 100%, 100%)" fill-opacity="1" d="M 736.40625 516.554688 L 729.789062 503.617188 L 729.386719 503.617188 L 722.515625 516.554688 Z M 704.59375 533.320312 L 724.753906 495.300781 L 734.316406 495.300781 L 754.308594 533.320312 L 744.933594 533.320312 L 740.058594 523.734375 L 718.847656 523.734375 L 713.917969 533.320312 Z M 704.59375 533.320312 " />
  <path fill-rule="nonzero" fill="rgb(100%, 100%, 100%)" fill-opacity="1" d="M 663.660156 495.300781 L 663.660156 502.863281 L 647.609375 502.863281 L 647.609375 533.320312 L 638.515625 533.320312 L 638.515625 502.863281 L 622.632812 502.863281 L 622.632812 495.300781 Z M 663.660156 495.300781 " />
  <path fill-rule="nonzero" fill="rgb(100%, 100%, 100%)" fill-opacity="1" d="M 677.621094 514.53125 L 692.796875 514.53125 C 697.398438 514.53125 698.710938 512.722656 698.710938 508.613281 C 698.710938 504.886719 697.5625 502.863281 692.796875 502.863281 L 677.621094 502.863281 Z M 677.621094 533.320312 L 668.527344 533.320312 L 668.527344 495.300781 L 694.4375 495.300781 C 704.027344 495.300781 707.804688 499.027344 707.804688 508.613281 C 707.804688 518.253906 703.917969 522.089844 694.550781 522.089844 L 677.621094 522.089844 Z M 677.621094 533.320312 " />
  <path fill-rule="nonzero" fill="rgb(100%, 100%, 100%)" fill-opacity="1" d="M 766.414062 509.875 L 789.914062 509.875 L 789.914062 495.300781 L 799.007812 495.300781 L 799.007812 533.320312 L 789.914062 533.320312 L 789.914062 517.433594 L 766.414062 517.433594 L 766.414062 533.320312 L 757.320312 533.320312 L 757.320312 495.300781 L 766.414062 495.300781 Z M 766.414062 509.875 " />
  <path fill-rule="nonzero" fill="rgb(100%, 100%, 100%)" fill-opacity="1" d="M 850 520.171875 C 849.945312 530.308594 847.480469 533.320312 836.25 533.320312 L 819.324219 533.320312 C 808.804688 533.320312 805.464844 530.089844 805.464844 519.898438 L 805.464844 509.105469 C 805.464844 497.984375 809.023438 494.863281 820.199219 494.863281 L 835.320312 494.863281 C 844.304688 494.863281 849.945312 497.4375 849.945312 508.121094 L 840.851562 508.121094 C 840.851562 504.121094 838.824219 502.421875 833.566406 502.421875 L 821.898438 502.421875 C 815.816406 502.421875 814.558594 503.464844 814.558594 509.433594 L 814.558594 518.859375 C 814.558594 524.664062 816.695312 525.761719 821.898438 525.761719 L 833.566406 525.761719 C 838.988281 525.761719 840.851562 524.773438 840.851562 520.171875 Z M 850 520.171875 " />
  <path fill-rule="evenodd" fill="rgb(100%, 100%, 100%)" fill-opacity="1" d="M 150 533.230469 L 188.027344 495.203125 L 188.027344 514.21875 L 207.042969 514.21875 L 207.039062 533.230469 Z M 150 533.230469 " />
  <path fill-rule="evenodd" fill="rgb(100%, 100%, 100%)" fill-opacity="1" d="M 283.101562 533.230469 L 245.074219 495.203125 L 245.070312 514.21875 L 226.058594 514.21875 L 226.0625 533.230469 Z M 283.101562 533.230469 " />
  <path fill-rule="evenodd" fill="rgb(100%, 100%, 100%)" fill-opacity="1" d="M 188.027344 495.203125 L 216.550781 466.679688 L 245.070312 495.207031 Z M 188.027344 495.203125 " />
</svg>
