<svg width="552" height="149" viewBox="0 0 552 149" fill="none" xmlns="http://www.w3.org/2000/svg">
<path d="M553.957 0C556.693 1.80958e-05 559.123 1.95271 559.646 4.73438L561.553 14.7832C561.644 15.1123 561.701 15.4529 561.724 15.8047H607.55C607.595 15.2826 607.708 14.7604 607.901 14.2383L611.728 4.14453C612.443 1.74877 614.657 0.0117188 617.28 0.0117188H868.211V0.0341797H868.393C872.423 0.17043 875.545 1.44226 877.328 3.11133C878.725 4.41708 879.543 6.01779 879.713 7.78906C879.906 9.73062 879.349 11.5703 877.976 13.1826C876.704 14.6699 874.546 15.9411 871.492 16.5996L873.332 34.4492L875.898 34.8574C891.42 37.2872 903.455 39.1729 903.455 60.8027V79.4688H914.491C917.693 79.4688 920.293 82.0688 920.293 85.2705V95.7734L924.71 94.9336C925.187 94.8087 925.686 94.7403 926.197 94.7402C929.399 94.7402 932 97.341 932 100.543V117.177H931.977C931.977 117.472 931.955 117.767 931.909 118.062C931.421 121.219 928.468 123.376 925.312 122.888L920.293 122.093V122.968C920.293 126.17 917.693 128.77 914.491 128.77H899.117C898.652 128.894 898.164 128.951 897.653 128.951H876.772C876.114 133.799 873.911 138.159 870.675 141.543L870.334 141.918C866.224 146.028 860.558 148.56 854.291 148.561C848.761 148.561 843.686 146.573 839.734 143.269C836.975 140.952 834.773 138 833.354 134.628H828.539C827.12 138 824.917 140.952 822.158 143.269C818.207 146.573 813.131 148.561 807.602 148.561C802.072 148.561 796.996 146.573 793.045 143.269C790.286 140.952 788.083 138 786.664 134.628H780.102C778.682 138 776.49 140.952 773.731 143.269C769.78 146.573 764.705 148.56 759.176 148.561C752.908 148.561 747.231 146.017 743.132 141.918H743.143C739.714 138.478 737.375 133.97 736.693 128.951H599.125C598.466 133.799 596.263 138.159 593.027 141.543L592.687 141.918C588.576 146.028 582.91 148.561 576.643 148.561C571.113 148.56 566.038 146.573 562.087 143.269C559.328 140.952 557.125 138 555.706 134.628H550.892C549.472 138 547.269 140.952 544.51 143.269C540.559 146.573 535.484 148.561 529.954 148.561C524.425 148.561 519.349 146.573 515.397 143.269C512.638 140.964 510.436 138 509.017 134.628H502.454C501.046 138 498.831 140.952 496.072 143.269C492.132 146.573 487.046 148.56 481.517 148.561C475.249 148.561 469.572 146.017 465.473 141.918H465.484C462.055 138.478 459.716 133.97 459.035 128.951H454.266C451.677 128.951 449.486 127.248 448.736 124.909L448.759 125.874C448.759 132.142 446.216 137.819 442.117 141.918C438.007 146.028 432.329 148.561 426.073 148.561C420.544 148.561 415.468 146.573 411.517 143.269C408.758 140.952 406.555 138 405.136 134.628H395.099C393.679 138 391.488 140.952 388.729 143.269C384.777 146.573 379.702 148.56 374.173 148.561C367.905 148.561 362.228 146.017 358.129 141.918C354.711 138.5 352.372 133.981 351.69 128.951H71.3291V128.917H71.0566C70.3754 133.947 68.0368 138.455 64.6191 141.884L64.5967 141.906C60.4864 146.017 54.8201 148.549 48.5752 148.549C43.0459 148.549 37.9708 146.562 34.0195 143.258C31.2605 140.942 29.0574 137.989 27.6494 134.617H17.6123C16.193 137.989 14.0013 140.942 11.2422 143.258C7.2909 146.562 2.21505 148.549 -3.31445 148.549C-9.58186 148.549 -15.2586 146.005 -19.3574 141.906C-23.4677 137.796 -26 132.13 -26 125.862C-25.9999 120.481 -24.1265 115.53 -20.9814 111.636C-22.571 110.603 -23.6151 108.809 -23.6152 106.776V100.509C-23.6152 97.3069 -21.0154 94.7061 -17.8135 94.7061H-11.3984V18.791C-11.3983 15.5894 -8.79831 12.9895 -5.59668 12.9893H204.198C206.458 12.9893 208.501 13.4777 208.501 15.6689V97.4883H211.306V15.3398C211.306 13.1485 214.348 12.9776 216.29 12.9775H426.084C429.49 12.9775 431.125 12.9779 431.137 16.1113L431.318 95.7393L433.158 95.3994V5.80176C433.93 2.59992 437.303 0 440.505 0H553.957ZM10.4258 112.964H18.7939V124.988H13.5479C13.2298 118.778 9.57375 113.464 4.32812 110.796C2.03464 109.626 -0.565237 108.968 -3.32422 108.968C-12.6575 108.968 -20.2197 116.53 -20.2197 125.863C-20.2195 135.196 -12.6573 142.758 -3.32422 142.758C-0.565229 142.758 2.03463 142.099 4.32812 140.93C8.97205 138.568 12.3785 134.117 13.3096 128.826H31.9424C32.9643 134.628 36.9604 139.42 42.2969 141.555C44.2385 142.327 46.3507 142.758 48.5762 142.758C50.8016 142.758 52.9928 142.315 54.957 141.509C59.51 139.647 63.0759 135.866 64.6201 131.154C65.1651 129.485 65.4716 127.714 65.4717 125.863C65.4717 124.013 65.1765 122.229 64.6201 120.571C63.0645 115.871 59.51 112.079 54.957 110.217C52.9928 109.411 50.8356 108.968 48.5762 108.968C46.3167 108.968 44.2385 109.399 42.2969 110.171C36.3247 112.555 32.0438 118.255 31.7031 124.988H27.5029V112.964H35.8711V108.695H10.4258V112.964ZM387.912 112.976H396.28V125H391.034C390.955 123.524 390.694 122.093 390.263 120.73C388.435 114.974 383.598 110.557 377.603 109.319C376.49 109.092 375.343 108.968 374.162 108.968C370.756 108.968 367.599 109.978 364.942 111.704C362.047 113.589 359.765 116.337 358.471 119.584C357.699 121.526 357.267 123.638 357.267 125.863C357.267 128.089 357.699 130.2 358.471 132.142C359.776 135.389 362.047 138.137 364.942 140.021C367.588 141.747 370.756 142.758 374.162 142.758C375.343 142.758 376.49 142.633 377.603 142.406C383.598 141.169 388.423 136.752 390.263 130.995C390.49 130.291 390.671 129.565 390.796 128.815H409.429C410.167 132.96 412.404 136.582 415.571 139.091C418.455 141.373 422.1 142.747 426.062 142.747C435.396 142.747 442.958 135.185 442.958 125.852C442.958 116.518 435.396 108.956 426.062 108.956V108.968C422.1 108.968 418.455 110.33 415.571 112.624C411.881 115.553 409.44 119.981 409.19 125H404.989V112.976H413.357V108.706H387.912V112.976ZM481.154 108.968C471.991 109.161 464.622 116.654 464.622 125.862C464.622 135.071 471.991 142.565 481.154 142.758H481.518C485.707 142.758 489.533 141.236 492.485 138.716C494.915 136.638 496.744 133.89 497.697 130.756H487.274C486.207 130.756 485.344 129.893 485.344 128.826V121.4C485.344 120.333 486.207 119.47 487.274 119.47H497.164C496.131 116.96 494.518 114.747 492.485 113.01C489.533 110.489 485.707 108.968 481.518 108.968H481.154ZM513.764 130.756C515.864 137.705 522.313 142.758 529.943 142.758C537.573 142.758 544.023 137.705 546.112 130.756H513.764ZM759.165 108.968C749.832 108.968 742.27 116.529 742.27 125.862C742.27 135.196 749.832 142.758 759.165 142.758C763.355 142.758 767.181 141.236 770.133 138.716C772.563 136.638 774.391 133.89 775.345 130.756H764.922C763.855 130.756 762.991 129.893 762.991 128.826V121.4C762.991 120.333 763.855 119.47 764.922 119.47H774.812C773.778 116.96 772.165 114.747 770.133 113.01C767.181 110.489 763.355 108.968 759.165 108.968ZM791.411 130.757C793.512 137.705 799.961 142.758 807.58 142.758C815.21 142.758 821.659 137.705 823.76 130.757H791.411ZM854.257 108.968C850.476 108.968 846.979 110.216 844.163 112.316C841.722 114.144 839.792 116.609 838.622 119.47H850.249C851.316 119.47 852.18 120.333 852.18 121.4V128.826C852.18 129.893 851.316 130.756 850.249 130.756H838.089C839.145 134.253 841.313 137.274 844.163 139.408C846.979 141.509 850.476 142.758 854.257 142.758C855.336 142.758 856.392 142.656 857.414 142.463C865.237 140.987 871.152 134.117 871.152 125.862C871.152 117.608 865.237 110.739 857.414 109.263C856.392 109.07 855.336 108.968 854.257 108.968ZM576.985 108.968H576.622C572.841 108.968 569.343 110.205 566.527 112.306C564.086 114.134 562.156 116.598 560.986 119.459H572.613C573.681 119.459 574.544 120.322 574.544 121.39V128.814C574.544 129.882 573.681 130.745 572.613 130.745H560.453C561.509 134.242 563.677 137.263 566.527 139.397C569.343 141.498 572.841 142.747 576.622 142.747H576.985C586.148 142.554 593.517 135.06 593.517 125.852C593.517 116.643 586.148 109.149 576.985 108.956V108.968ZM487.273 128.826H572.602V121.4H487.273V128.826ZM764.921 128.826H850.249V121.4H764.921V128.826ZM454.267 123.138H462.896C463.487 119.028 465.417 115.348 468.222 112.544L468.335 112.442C471.65 109.172 476.181 107.128 481.177 107.037H481.54C485.628 107.037 489.419 108.344 492.508 110.558C493.348 111.159 494.132 111.829 494.858 112.556C496.789 114.486 498.31 116.848 499.264 119.471H512.253C513.207 116.848 514.718 114.486 516.659 112.556C520.065 109.149 524.777 107.037 529.978 107.037C535.178 107.037 539.89 109.149 543.296 112.556C545.226 114.486 546.747 116.848 547.701 119.471H558.954C559.908 116.848 561.418 114.486 563.359 112.556L563.473 112.453C564.415 111.522 565.46 110.693 566.572 109.989C569.49 108.127 572.953 107.049 576.666 107.049H577.03C582.083 107.151 586.659 109.241 589.985 112.567C592.79 115.372 594.709 119.05 595.311 123.16H599.897L599.852 122.979L595.833 106.821L595.787 106.811H454.267V123.138ZM737.909 123.138H740.531C741.122 119.027 743.052 115.348 745.856 112.544L745.971 112.442C749.377 109.104 754.032 107.037 759.164 107.037C763.252 107.037 767.044 108.344 770.133 110.558C770.973 111.159 771.756 111.829 772.482 112.556C774.413 114.486 775.935 116.848 776.889 119.471H789.878C790.832 116.848 792.342 114.486 794.283 112.556C797.69 109.149 802.402 107.037 807.591 107.037C812.78 107.037 817.491 109.15 820.897 112.556C822.839 114.486 824.349 116.848 825.303 119.471H836.556C837.509 116.848 839.019 114.486 840.961 112.556L841.074 112.453C842.017 111.522 843.061 110.693 844.174 109.989C847.092 108.127 850.556 107.049 854.269 107.049C855.347 107.049 856.392 107.139 857.425 107.31C861.365 107.968 864.885 109.865 867.587 112.567C870.391 115.372 872.31 119.05 872.912 123.16H897.642V106.833H844.186L844.174 106.811H741.292L737.909 123.138ZM64.6309 110.318L67.6172 116.041L71.3301 123.138H353.372L358.459 111.466L359.674 108.706H63.7793L64.6309 110.318ZM900.117 122.956H914.458V85.248H900.117V122.956ZM599.807 106.992L603.337 121.208H734.366L737.353 106.811H599.761L599.807 106.992ZM529.933 108.968C522.859 108.968 516.818 113.304 514.286 119.47H545.579C543.058 113.304 537.006 108.968 529.933 108.968ZM807.579 108.968C800.517 108.968 794.465 113.304 791.933 119.47H823.226C820.705 113.304 814.653 108.968 807.579 108.968ZM917.126 102.893V115.189L926.164 117.165V100.52L917.126 102.893ZM-17.8467 106.765H433.295V100.497H-17.8467V106.765ZM439.2 104.267H897.631V100.497H439.2V104.267ZM857.414 14.6475L844.164 16.4297L831.266 18.167C831.141 18.1897 831.004 18.2119 830.868 18.2119H613.705L609.901 21.6074H557.648L554.061 18.2119H439.2V98.1807H897.631V60.7793C897.631 41.1481 883.949 42.4655 868.008 39.3545L865.351 13.5801L857.414 14.6475ZM-5.64062 97.4658H204.165V88.9043H-5.64062V97.4658ZM215.734 97.4658H425.528V88.9043H215.734V97.4658ZM20.2246 95.4219H7.03027V92.1631H20.2246V95.4219ZM191.493 95.4219H178.3V92.1631H191.493V95.4219ZM241.6 95.4219H228.406V92.1631H241.6V95.4219ZM412.857 95.4219H399.663V92.1631H412.857V95.4219ZM-5.64062 87.3604H204.165V17.2354H-5.64062V87.3604ZM215.734 87.3604H425.528V17.2354H215.734V87.3604ZM6.63379 19.3701C7.70089 19.3704 8.56348 20.2336 8.56348 21.3008V83.8066C8.56327 84.8736 7.70076 85.7361 6.63379 85.7363H2.01172C1.01133 85.7361 0.190533 84.978 0.0917969 84.0039L0.0820312 83.8066V21.3008C0.0820312 20.2336 0.944599 19.3703 2.01172 19.3701H6.63379ZM19.293 19.3701C20.3603 19.3701 21.2236 20.2335 21.2236 21.3008V83.8066C21.2234 84.8738 20.3601 85.7363 19.293 85.7363H14.6719C13.6049 85.7361 12.7424 84.8737 12.7422 83.8066V21.3008C12.7422 20.2336 13.6047 19.3703 14.6719 19.3701H19.293ZM31.9531 19.3701C33.0204 19.3701 33.8838 20.2335 33.8838 21.3008V83.8066C33.8836 84.8738 33.0203 85.7363 31.9531 85.7363H27.332C26.265 85.7362 25.4025 84.8737 25.4023 83.8066V21.3008C25.4023 20.2336 26.2649 19.3703 27.332 19.3701H31.9531ZM44.6133 19.3701C45.6806 19.3701 46.5439 20.2335 46.5439 21.3008V83.8066C46.5437 84.8738 45.6805 85.7363 44.6133 85.7363H39.9922C38.9251 85.7362 38.0627 84.8737 38.0625 83.8066V21.3008C38.0625 20.2335 38.925 19.3702 39.9922 19.3701H44.6133ZM57.2734 19.3701C58.3407 19.3701 59.2041 20.2335 59.2041 21.3008V83.8066C59.2039 84.8738 58.3406 85.7363 57.2734 85.7363H52.6523C51.5852 85.7363 50.7229 84.8737 50.7227 83.8066V21.3008C50.7227 20.2335 51.5851 19.3702 52.6523 19.3701H57.2734ZM69.9229 19.3701C70.99 19.3703 71.8525 20.2336 71.8525 21.3008V83.8066C71.8523 84.8736 70.9898 85.7361 69.9229 85.7363H65.3008C65.0625 85.7363 64.8357 85.6908 64.6201 85.6113C63.8936 85.3389 63.3713 84.6353 63.3711 83.8066V21.3008C63.3711 20.4719 63.8934 19.7676 64.6201 19.4951C64.8357 19.4157 65.0626 19.3702 65.3008 19.3701H69.9229ZM82.582 19.3701C83.6493 19.3701 84.5127 20.2335 84.5127 21.3008V83.8066C84.5125 84.8738 83.6492 85.7363 82.582 85.7363H77.9609C76.8939 85.7361 76.0315 84.8736 76.0312 83.8066V21.3008C76.0312 20.2336 76.8938 19.3703 77.9609 19.3701H82.582ZM95.2422 19.3701C96.3095 19.3701 97.1729 20.2335 97.1729 21.3008V83.8066C97.1726 84.8738 96.3094 85.7363 95.2422 85.7363H90.6211C89.554 85.7362 88.6916 84.8737 88.6914 83.8066V21.3008C88.6914 20.2336 89.5539 19.3703 90.6211 19.3701H95.2422ZM107.902 19.3701C108.97 19.3701 109.833 20.2335 109.833 21.3008V83.8066C109.833 84.8738 108.97 85.7363 107.902 85.7363H103.281C102.214 85.7362 101.352 84.8737 101.352 83.8066V21.3008C101.352 20.2335 102.214 19.3702 103.281 19.3701H107.902ZM120.562 19.3701C121.63 19.3701 122.493 20.2335 122.493 21.3008V83.8066C122.493 84.8738 121.63 85.7363 120.562 85.7363H115.941C114.874 85.7362 114.012 84.8737 114.012 83.8066V21.3008C114.012 20.2335 114.874 19.3702 115.941 19.3701H120.562ZM133.212 19.3701C134.279 19.3703 135.142 20.2336 135.142 21.3008V83.8066C135.141 84.8736 134.279 85.7361 133.212 85.7363H128.59C127.523 85.7361 126.66 84.8736 126.66 83.8066V21.3008C126.66 20.2336 127.523 19.3704 128.59 19.3701H133.212ZM145.872 19.3701C146.939 19.3704 147.802 20.2336 147.802 21.3008V83.8066C147.802 84.8736 146.939 85.7361 145.872 85.7363H141.25C140.183 85.7361 139.321 84.8736 139.32 83.8066V21.3008C139.32 20.2336 140.183 19.3703 141.25 19.3701H145.872ZM158.531 19.3701C159.599 19.3701 160.462 20.2335 160.462 21.3008V83.8066C160.462 84.8738 159.598 85.7363 158.531 85.7363H153.91C152.843 85.7362 151.981 84.8737 151.98 83.8066V21.3008C151.98 20.2336 152.843 19.3703 153.91 19.3701H158.531ZM171.191 19.3701C172.259 19.3701 173.122 20.2335 173.122 21.3008V83.8066C173.122 84.8738 172.259 85.7363 171.191 85.7363H166.57C165.503 85.7362 164.641 84.8737 164.641 83.8066V21.3008C164.641 20.2336 165.503 19.3703 166.57 19.3701H171.191ZM183.852 19.3701C184.919 19.3701 185.782 20.2335 185.782 21.3008V83.8066C185.782 84.8738 184.919 85.7363 183.852 85.7363H179.23C178.163 85.7362 177.301 84.8737 177.301 83.8066V21.3008C177.301 20.2335 178.163 19.3702 179.23 19.3701H183.852ZM196.512 19.3701C197.579 19.3701 198.442 20.2335 198.442 21.3008V83.8066C198.442 84.8738 197.579 85.7363 196.512 85.7363H191.891C190.824 85.7363 189.961 84.8737 189.961 83.8066V21.3008C189.961 20.2335 190.823 19.3702 191.891 19.3701H196.512ZM228.009 19.3701C229.076 19.3703 229.938 20.2336 229.938 21.3008V83.8066C229.938 84.8737 229.076 85.7362 228.009 85.7363H223.388C222.387 85.7363 221.566 84.9781 221.467 84.0039L221.457 83.8066V21.3008C221.457 20.2335 222.32 19.3701 223.388 19.3701H228.009ZM240.669 19.3701C241.736 19.3703 242.599 20.2336 242.599 21.3008V83.8066C242.598 84.8736 241.736 85.7361 240.669 85.7363H236.047C234.98 85.7361 234.117 84.8736 234.117 83.8066V21.3008C234.117 20.2336 234.98 19.3704 236.047 19.3701H240.669ZM253.329 19.3701C254.396 19.3704 255.259 20.2336 255.259 21.3008V83.8066C255.259 84.8736 254.396 85.7361 253.329 85.7363H248.707C247.64 85.7361 246.778 84.8736 246.777 83.8066V21.3008C246.777 20.2336 247.64 19.3703 248.707 19.3701H253.329ZM265.988 19.3701C267.056 19.3701 267.919 20.2335 267.919 21.3008V83.8066C267.919 84.8738 267.055 85.7363 265.988 85.7363H261.367C260.3 85.7361 259.438 84.8737 259.438 83.8066V21.3008C259.438 20.2336 260.3 19.3703 261.367 19.3701H265.988ZM278.638 19.3701C279.705 19.3702 280.567 20.2335 280.567 21.3008V83.8066C280.567 84.8737 279.705 85.7362 278.638 85.7363H274.017C272.949 85.7363 272.086 84.8738 272.086 83.8066V21.3008C272.086 20.2335 272.949 19.3701 274.017 19.3701H278.638ZM291.298 19.3701C292.365 19.3703 293.228 20.2336 293.228 21.3008V83.8066C293.227 84.8737 292.365 85.7362 291.298 85.7363H286.677C285.61 85.7363 284.746 84.8738 284.746 83.8066V21.3008C284.746 20.2335 285.609 19.3701 286.677 19.3701H291.298ZM303.958 19.3701C305.025 19.3703 305.888 20.2336 305.888 21.3008V83.8066C305.887 84.8736 305.025 85.7361 303.958 85.7363H299.336C298.269 85.7361 297.406 84.8736 297.406 83.8066V21.3008C297.406 20.2336 298.269 19.3704 299.336 19.3701H303.958ZM316.618 19.3701C317.685 19.3703 318.548 20.2336 318.548 21.3008V83.8066C318.548 84.8736 317.685 85.7361 316.618 85.7363H311.996C310.929 85.7361 310.067 84.8736 310.066 83.8066V21.3008C310.066 20.2336 310.929 19.3704 311.996 19.3701H316.618ZM329.278 19.3701C330.345 19.3704 331.208 20.2336 331.208 21.3008V83.8066C331.208 84.8736 330.345 85.7361 329.278 85.7363H324.656C323.589 85.7361 322.727 84.8736 322.727 83.8066V21.3008C322.727 20.2336 323.589 19.3703 324.656 19.3701H329.278ZM341.927 19.3701C342.994 19.3702 343.856 20.2335 343.856 21.3008V83.8066C343.856 84.8737 342.994 85.7362 341.927 85.7363H337.306C336.238 85.7363 335.375 84.8738 335.375 83.8066V21.3008C335.375 20.2335 336.238 19.3701 337.306 19.3701H341.927ZM354.587 19.3701C355.654 19.3703 356.517 20.2336 356.517 21.3008V83.8066C356.516 84.8737 355.654 85.7362 354.587 85.7363H349.966C348.899 85.7363 348.035 84.8738 348.035 83.8066V21.3008C348.035 20.2335 348.898 19.3701 349.966 19.3701H354.587ZM367.247 19.3701C368.314 19.3703 369.177 20.2336 369.177 21.3008V83.8066C369.177 84.8737 368.314 85.7362 367.247 85.7363H362.626C361.559 85.7363 360.696 84.8738 360.695 83.8066V21.3008C360.695 20.2335 361.559 19.3701 362.626 19.3701H367.247ZM379.907 19.3701C380.974 19.3703 381.837 20.2336 381.837 21.3008V83.8066C381.837 84.8736 380.974 85.7361 379.907 85.7363H375.285C374.218 85.7361 373.356 84.8736 373.355 83.8066V21.3008C373.355 20.2336 374.218 19.3704 375.285 19.3701H379.907ZM392.567 19.3701C393.634 19.3704 394.497 20.2336 394.497 21.3008V83.8066C394.497 84.8736 393.634 85.7361 392.567 85.7363H387.945C386.878 85.7361 386.016 84.8736 386.016 83.8066V21.3008C386.016 20.2336 386.878 19.3703 387.945 19.3701H392.567ZM405.227 19.3701C406.294 19.3701 407.157 20.2335 407.157 21.3008V83.8066C407.157 84.8738 406.294 85.7363 405.227 85.7363H400.605C399.538 85.7362 398.676 84.8737 398.676 83.8066V21.3008C398.676 20.2336 399.538 19.3703 400.605 19.3701H405.227ZM417.876 19.3701C418.943 19.3702 419.806 20.2335 419.806 21.3008V83.8066C419.805 84.8737 418.943 85.7362 417.876 85.7363H413.255C412.188 85.7363 411.324 84.8738 411.324 83.8066V21.3008C411.324 20.2335 412.188 19.3701 413.255 19.3701H417.876ZM2.0127 83.8174H6.63379V21.3008H2.0127V83.8174ZM191.89 83.8174H196.5V21.3008H191.89V83.8174ZM223.388 83.8174H228.009V21.3008H223.388V83.8174ZM413.266 83.8174H417.875V21.3008H413.266V83.8174ZM14.6719 83.8066H19.293V21.3008H14.6719V83.8066ZM27.332 83.8066H31.9531V21.3008H27.332V83.8066ZM39.9922 83.8066H44.6133V21.3008H39.9922V83.8066ZM52.6406 83.8066H57.2617V21.3008H52.6406V83.8066ZM65.3008 83.8066H69.9219V21.3008H65.3008V83.8066ZM77.9609 83.8066H82.582V21.3008H77.9609V83.8066ZM90.6211 83.8066H95.2432V21.3008H90.6211V83.8066ZM103.281 83.8066H107.902V21.3008H103.281V83.8066ZM115.941 83.8066H120.562V21.3008H115.941V83.8066ZM128.59 83.8066H133.211V21.3008H128.59V83.8066ZM141.25 83.8066H145.872V21.3008H141.25V83.8066ZM153.91 83.8066H158.531V21.3008H153.91V83.8066ZM166.57 83.8066H171.191V21.3008H166.57V83.8066ZM179.229 83.8066H183.851V21.3008H179.229V83.8066ZM236.047 83.8066H240.668V21.3008H236.047V83.8066ZM248.708 83.8066H253.329V21.3008H248.708V83.8066ZM261.355 83.8066H265.977V21.3008H261.355V83.8066ZM274.016 83.8066H278.637V21.3008H274.016V83.8066ZM286.677 83.8066H291.298V21.3008H286.677V83.8066ZM299.336 83.8066H303.957V21.3008H299.336V83.8066ZM311.997 83.8066H316.618V21.3008H311.997V83.8066ZM324.656 83.8066H329.277V21.3008H324.656V83.8066ZM337.306 83.8066H341.927V21.3008H337.306V83.8066ZM349.965 83.8066H354.586V21.3008H349.965V83.8066ZM362.626 83.8066H367.247V21.3008H362.626V83.8066ZM375.286 83.8066H379.907V21.3008H375.286V83.8066ZM387.945 83.8066H392.566V21.3008H387.945V83.8066ZM400.595 83.8066H405.216V21.3008H400.595V83.8066ZM690.597 20.9717C692.175 20.9718 693.617 21.6186 694.661 22.6631C695.706 23.6963 696.353 25.1503 696.353 26.7285V49.7207H696.376C696.376 51.3103 695.728 52.7523 694.684 53.7969L694.548 53.9219C693.515 54.887 692.129 55.4883 690.607 55.4883H627.205C625.616 55.4883 624.174 54.8414 623.129 53.7969L623.004 53.6602C622.039 52.627 621.437 51.2421 621.437 49.7207V26.7285C621.437 25.1503 622.084 23.7077 623.129 22.6631C624.173 21.6186 625.604 20.9717 627.193 20.9717H690.597ZM770.849 20.9482C772.427 20.9482 773.869 21.596 774.914 22.6406L774.937 22.6631C775.97 23.7076 776.605 25.1383 776.605 26.7051V49.7207C776.605 51.2987 775.958 52.7406 774.914 53.7852L774.891 53.8086C773.846 54.8416 772.415 55.4775 770.849 55.4775H707.446C705.857 55.4775 704.415 54.8298 703.37 53.7852C702.326 52.7406 701.678 51.2986 701.678 49.709V26.7168C701.678 25.1272 702.326 23.6852 703.37 22.6406C704.415 21.5961 705.857 20.9482 707.446 20.9482H770.849ZM627.205 22.8906C625.093 22.8906 623.379 24.6162 623.379 26.7168V49.709C623.379 51.8209 625.105 53.5361 627.205 53.5361H690.607C692.719 53.5361 694.434 51.8095 694.434 49.709V26.7168C694.434 24.6049 692.708 22.8906 690.607 22.8906H627.205ZM707.446 22.8906C705.334 22.8908 703.62 24.6163 703.62 26.7168V49.709C703.62 51.8208 705.346 53.536 707.446 53.5361H770.85C772.961 53.5359 774.676 51.8094 774.676 49.709V26.7168C774.676 24.605 772.95 22.8909 770.85 22.8906H707.446ZM846.025 38.7637H831.912V21.21H846.025V38.7637ZM864.67 38.7637H850.17V21.21H863.058L864.67 38.7637ZM436.6 15.5898H555.911L553.924 5.80273H436.6V15.5898ZM613.307 15.5898H830.879L844.175 13.9209L857.426 12.252L869.109 10.7871C876.33 9.87866 875.024 6.00711 868.2 5.80273H617.27L613.307 15.5898Z" fill="url(#paint0_linear_212_25020)"/>
<defs>
<linearGradient id="paint0_linear_212_25020" x1="208.641" y1="7.25516e-06" x2="845.046" y2="247.283" gradientUnits="userSpaceOnUse">
<stop stop-color="#1E60B3"/>
<stop offset="1" stop-color="#0D3776"/>
</linearGradient>
</defs>
</svg>
